<?xml version="1.0" encoding="UTF-8"?>
<svg width="75px" height="120px" viewBox="0 0 75 120" version="1.1" xmlns="http://www.w3.org/2000/svg" xmlns:xlink="http://www.w3.org/1999/xlink">
    <!-- Generator: Sketch 53.2 (72643) - https://sketchapp.com -->
    <title>Loghi / Milan / Badge</title>
    <desc>Created with Sketch.</desc>
    <defs>
        <polygon id="path-1" points="0.000531746032 0.436 73.3011905 0.436 73.3011905 118.666667 0.000531746032 118.666667"></polygon>
    </defs>
    <g id="Loghi-/-Milan-/-Badge" stroke="none" stroke-width="1" fill="none" fill-rule="evenodd">
        <g id="Icon-/-Logo-Milan" transform="translate(-0.000000, 0.000000)">
            <g id="Group-3" transform="translate(0.000000, 0.897333)">
                <mask id="mask-2" fill="white">
                    <use xlink:href="#path-1"></use>
                </mask>
                <g id="Clip-2"></g>
                <path d="M0.000531746032,59.5613333 C0.0124960317,27.0853333 16.1669405,0.528 36.651127,0.436 C57.1366429,0.528 73.2804524,27.0853333 73.3017222,59.5613333 C73.2804524,92.0146667 57.1366429,118.572 36.651127,118.666667 C16.1669405,118.572 0.0124960317,92.0146667 0.000531746032,59.5613333" id="Fill-1" fill="#000000" mask="url(#mask-2)"></path>
            </g>
            <path d="M30.3942044,99.4430667 C29.6404544,99.3044 28.6766647,99.6004 28.4905536,100.645733 C28.3336885,101.5764 28.9558313,102.3244 29.9143036,102.491067 C30.9884306,102.687067 31.6504544,101.9244 31.7661091,101.255067 C31.8910694,100.561733 31.5480933,99.6497333 30.3942044,99.4430667 L30.3942044,99.4430667 Z M31.1838472,95.6044 C30.2479742,95.4284 29.5899385,95.8324 29.4596607,96.5430667 C29.3679345,97.1150667 29.7880139,97.8404 30.6933115,97.9977333 C31.5068829,98.1470667 32.1409901,97.7324 32.2659504,97.0430667 C32.3922401,96.3057333 31.845871,95.7257333 31.1838472,95.6044 L31.1838472,95.6044 Z M39.4112877,95.9870667 C38.8742242,96.0417333 37.733629,96.3590667 37.846625,97.7644 C37.970256,99.2390667 38.9606329,99.4617333 39.7489464,99.4057333 C40.4920615,99.3444 41.265752,98.7937333 41.1633909,97.6444 C41.0743234,96.5337333 40.4920615,95.8884 39.4112877,95.9870667 L39.4112877,95.9870667 Z M39.4112877,95.9870667 C38.8742242,96.0417333 37.733629,96.3590667 37.846625,97.7644 C37.970256,99.2390667 38.9606329,99.4617333 39.7489464,99.4057333 C40.4920615,99.3444 41.265752,98.7937333 41.1633909,97.6444 C41.0743234,96.5337333 40.4920615,95.8884 39.4112877,95.9870667 L39.4112877,95.9870667 Z M31.1838472,95.6044 C30.2479742,95.4284 29.5899385,95.8324 29.4596607,96.5430667 C29.3679345,97.1150667 29.7880139,97.8404 30.6933115,97.9977333 C31.5068829,98.1470667 32.1409901,97.7324 32.2659504,97.0430667 C32.3922401,96.3057333 31.845871,95.7257333 31.1838472,95.6044 L31.1838472,95.6044 Z M30.3942044,99.4430667 C29.6404544,99.3044 28.6766647,99.6004 28.4905536,100.645733 C28.3336885,101.5764 28.9558313,102.3244 29.9143036,102.491067 C30.9884306,102.687067 31.6504544,101.9244 31.7661091,101.255067 C31.8910694,100.561733 31.5480933,99.6497333 30.3942044,99.4430667 L30.3942044,99.4430667 Z M30.3942044,99.4430667 C29.6404544,99.3044 28.6766647,99.6004 28.4905536,100.645733 C28.3336885,101.5764 28.9558313,102.3244 29.9143036,102.491067 C30.9884306,102.687067 31.6504544,101.9244 31.7661091,101.255067 C31.8910694,100.561733 31.5480933,99.6497333 30.3942044,99.4430667 L30.3942044,99.4430667 Z M31.1838472,95.6044 C30.2479742,95.4284 29.5899385,95.8324 29.4596607,96.5430667 C29.3679345,97.1150667 29.7880139,97.8404 30.6933115,97.9977333 C31.5068829,98.1470667 32.1409901,97.7324 32.2659504,97.0430667 C32.3922401,96.3057333 31.845871,95.7257333 31.1838472,95.6044 L31.1838472,95.6044 Z M39.4112877,95.9870667 C38.8742242,96.0417333 37.733629,96.3590667 37.846625,97.7644 C37.970256,99.2390667 38.9606329,99.4617333 39.7489464,99.4057333 C40.4920615,99.3444 41.265752,98.7937333 41.1633909,97.6444 C41.0743234,96.5337333 40.4920615,95.8884 39.4112877,95.9870667 L39.4112877,95.9870667 Z M49.8680734,95.5177333 C49.5064861,94.4710667 48.7872996,93.9937333 47.7597004,94.3510667 C47.2505536,94.5204 46.2309306,95.1297333 46.684244,96.4510667 C47.1535099,97.8404 48.1718036,97.8230667 48.9268829,97.5697333 C49.6314464,97.3270667 50.2442837,96.6217333 49.8680734,95.5177333 L49.8680734,95.5177333 Z M49.8680734,95.5177333 C49.5064861,94.4710667 48.7872996,93.9937333 47.7597004,94.3510667 C47.2505536,94.5204 46.2309306,95.1297333 46.684244,96.4510667 C47.1535099,97.8404 48.1718036,97.8230667 48.9268829,97.5697333 C49.6314464,97.3270667 50.2442837,96.6217333 49.8680734,95.5177333 L49.8680734,95.5177333 Z M39.4112877,95.9870667 C38.8742242,96.0417333 37.733629,96.3590667 37.846625,97.7644 C37.970256,99.2390667 38.9606329,99.4617333 39.7489464,99.4057333 C40.4920615,99.3444 41.265752,98.7937333 41.1633909,97.6444 C41.0743234,96.5337333 40.4920615,95.8884 39.4112877,95.9870667 L39.4112877,95.9870667 Z M31.1838472,95.6044 C30.2479742,95.4284 29.5899385,95.8324 29.4596607,96.5430667 C29.3679345,97.1150667 29.7880139,97.8404 30.6933115,97.9977333 C31.5068829,98.1470667 32.1409901,97.7324 32.2659504,97.0430667 C32.3922401,96.3057333 31.845871,95.7257333 31.1838472,95.6044 L31.1838472,95.6044 Z M30.3942044,99.4430667 C29.6404544,99.3044 28.6766647,99.6004 28.4905536,100.645733 C28.3336885,101.5764 28.9558313,102.3244 29.9143036,102.491067 C30.9884306,102.687067 31.6504544,101.9244 31.7661091,101.255067 C31.8910694,100.561733 31.5480933,99.6497333 30.3942044,99.4430667 L30.3942044,99.4430667 Z M30.3942044,99.4430667 C29.6404544,99.3044 28.6766647,99.6004 28.4905536,100.645733 C28.3336885,101.5764 28.9558313,102.3244 29.9143036,102.491067 C30.9884306,102.687067 31.6504544,101.9244 31.7661091,101.255067 C31.8910694,100.561733 31.5480933,99.6497333 30.3942044,99.4430667 L30.3942044,99.4430667 Z M31.1838472,95.6044 C30.2479742,95.4284 29.5899385,95.8324 29.4596607,96.5430667 C29.3679345,97.1150667 29.7880139,97.8404 30.6933115,97.9977333 C31.5068829,98.1470667 32.1409901,97.7324 32.2659504,97.0430667 C32.3922401,96.3057333 31.845871,95.7257333 31.1838472,95.6044 L31.1838472,95.6044 Z M39.4112877,95.9870667 C38.8742242,96.0417333 37.733629,96.3590667 37.846625,97.7644 C37.970256,99.2390667 38.9606329,99.4617333 39.7489464,99.4057333 C40.4920615,99.3444 41.265752,98.7937333 41.1633909,97.6444 C41.0743234,96.5337333 40.4920615,95.8884 39.4112877,95.9870667 L39.4112877,95.9870667 Z M47.7597004,94.3510667 C47.2505536,94.5204 46.2309306,95.1297333 46.684244,96.4510667 C47.1535099,97.8404 48.1718036,97.8230667 48.9268829,97.5697333 C49.6314464,97.3270667 50.2442837,96.6217333 49.8680734,95.5177333 C49.5064861,94.4710667 48.7872996,93.9937333 47.7597004,94.3510667 L47.7597004,94.3510667 Z M50.3905139,102.3524 C48.8205337,102.9004 47.408748,102.5404 46.6523393,101.427067 L47.9591052,100.5124 L47.9591052,100.525733 C48.4230536,101.0804 49.1369226,101.2804 49.9092837,100.8964 C50.6843036,100.505733 51.3356925,99.6990667 50.6843036,97.7510667 L50.6550575,97.7284 C50.4051369,98.5164 49.6726567,98.9310667 49.0013274,99.1697333 C47.0644425,99.8377333 45.4838274,98.8897333 44.9520813,97.3524 C44.1783909,95.0830667 45.285752,93.5244 47.2678353,92.8484 C50.7707123,91.6417333 51.9990456,95.0697333 52.4536885,96.3550667 C53.6673988,99.9404 52.2210496,101.727067 50.3905139,102.3524 L50.3905139,102.3524 Z M40.0028552,104.3964 C38.3544425,104.541733 37.063629,103.849733 36.604998,102.5764 L38.0898988,102.015067 L38.0898988,102.035067 C38.3969821,102.687067 39.0470417,103.0484 39.9018234,102.863067 C40.7406528,102.6764 41.5701766,102.055067 41.4279345,100.015067 L41.393371,99.9910667 C40.9626567,100.671067 40.1530734,100.913733 39.4352163,100.9724 C37.3919821,101.143067 36.0838869,99.8377333 35.9562679,98.2110667 C35.7502163,95.8177333 37.205871,94.5790667 39.2956329,94.4124 C42.9886091,94.1070667 43.344879,97.7284 43.4552163,99.0950667 C43.7676171,102.863067 41.9277758,104.2244 40.0028552,104.3964 L40.0028552,104.3964 Z M34.2121409,97.1857333 C34.0659107,98.0177333 33.5740456,98.6710667 32.6514663,98.9137333 C33.5820218,99.5590667 34.0459702,100.279067 33.826625,101.533733 C33.6165853,102.7564 32.4161687,104.523067 29.6271607,104.0124 C26.9099385,103.531067 26.2678552,101.739067 26.4885298,100.415067 C26.5775972,99.9404 26.8035893,98.6390667 28.5251171,98.2364 C27.7594028,97.7230667 27.421744,97.0230667 27.574621,96.1244 C27.865752,94.4710667 29.4689663,93.7310667 31.3114663,94.0564 C33.4889663,94.4564 34.4500972,95.8417333 34.2121409,97.1857333 L34.2121409,97.1857333 Z M22.9019028,101.943067 L20.8945615,101.255067 L22.9962877,95.0577333 C22.5376567,95.2324 21.8370813,95.2324 20.8134702,94.8737333 L20.426625,94.7457333 L20.623371,94.1830667 L20.6153948,94.1684 L21.012875,93.0150667 L21.3093234,93.1097333 C22.826129,93.6390667 24.0345218,92.6177333 24.1780933,92.1964 L26.0033115,92.8257333 L22.9019028,101.943067 Z M36.6581726,92.5537333 C24.5024583,92.5537333 13.9433115,85.7697333 8.51817262,75.7750667 C9.9538869,83.9097333 12.4717044,91.2204 15.834998,97.0924 C21.1790456,106.445733 28.550375,112.193733 36.644879,112.193733 L36.8110496,112.193733 C44.8364266,112.129733 52.1559107,106.399067 57.4786885,97.0924 C60.834006,91.2204 63.3478353,83.9097333 64.784879,75.7750667 C59.3677163,85.7764 48.803252,92.5537333 36.6581726,92.5537333 L36.6581726,92.5537333 Z M30.3942044,99.4430667 C29.6404544,99.3044 28.6766647,99.6004 28.4905536,100.645733 C28.3336885,101.5764 28.9558313,102.3244 29.9143036,102.491067 C30.9884306,102.687067 31.6504544,101.9244 31.7661091,101.255067 C31.8910694,100.561733 31.5480933,99.6497333 30.3942044,99.4430667 L30.3942044,99.4430667 Z M31.1838472,95.6044 C30.2479742,95.4284 29.5899385,95.8324 29.4596607,96.5430667 C29.3679345,97.1150667 29.7880139,97.8404 30.6933115,97.9977333 C31.5068829,98.1470667 32.1409901,97.7324 32.2659504,97.0430667 C32.3922401,96.3057333 31.845871,95.7257333 31.1838472,95.6044 L31.1838472,95.6044 Z M39.4112877,95.9870667 C38.8742242,96.0417333 37.733629,96.3590667 37.846625,97.7644 C37.970256,99.2390667 38.9606329,99.4617333 39.7489464,99.4057333 C40.4920615,99.3444 41.265752,98.7937333 41.1633909,97.6444 C41.0743234,96.5337333 40.4920615,95.8884 39.4112877,95.9870667 L39.4112877,95.9870667 Z M49.8680734,95.5177333 C49.5064861,94.4710667 48.7872996,93.9937333 47.7597004,94.3510667 C47.2505536,94.5204 46.2309306,95.1297333 46.684244,96.4510667 C47.1535099,97.8404 48.1718036,97.8230667 48.9268829,97.5697333 C49.6314464,97.3270667 50.2442837,96.6217333 49.8680734,95.5177333 L49.8680734,95.5177333 Z M49.8680734,95.5177333 C49.5064861,94.4710667 48.7872996,93.9937333 47.7597004,94.3510667 C47.2505536,94.5204 46.2309306,95.1297333 46.684244,96.4510667 C47.1535099,97.8404 48.1718036,97.8230667 48.9268829,97.5697333 C49.6314464,97.3270667 50.2442837,96.6217333 49.8680734,95.5177333 L49.8680734,95.5177333 Z M39.4112877,95.9870667 C38.8742242,96.0417333 37.733629,96.3590667 37.846625,97.7644 C37.970256,99.2390667 38.9606329,99.4617333 39.7489464,99.4057333 C40.4920615,99.3444 41.265752,98.7937333 41.1633909,97.6444 C41.0743234,96.5337333 40.4920615,95.8884 39.4112877,95.9870667 L39.4112877,95.9870667 Z M31.1838472,95.6044 C30.2479742,95.4284 29.5899385,95.8324 29.4596607,96.5430667 C29.3679345,97.1150667 29.7880139,97.8404 30.6933115,97.9977333 C31.5068829,98.1470667 32.1409901,97.7324 32.2659504,97.0430667 C32.3922401,96.3057333 31.845871,95.7257333 31.1838472,95.6044 L31.1838472,95.6044 Z M30.3942044,99.4430667 C29.6404544,99.3044 28.6766647,99.6004 28.4905536,100.645733 C28.3336885,101.5764 28.9558313,102.3244 29.9143036,102.491067 C30.9884306,102.687067 31.6504544,101.9244 31.7661091,101.255067 C31.8910694,100.561733 31.5480933,99.6497333 30.3942044,99.4430667 L30.3942044,99.4430667 Z M30.3942044,99.4430667 C29.6404544,99.3044 28.6766647,99.6004 28.4905536,100.645733 C28.3336885,101.5764 28.9558313,102.3244 29.9143036,102.491067 C30.9884306,102.687067 31.6504544,101.9244 31.7661091,101.255067 C31.8910694,100.561733 31.5480933,99.6497333 30.3942044,99.4430667 L30.3942044,99.4430667 Z M31.1838472,95.6044 C30.2479742,95.4284 29.5899385,95.8324 29.4596607,96.5430667 C29.3679345,97.1150667 29.7880139,97.8404 30.6933115,97.9977333 C31.5068829,98.1470667 32.1409901,97.7324 32.2659504,97.0430667 C32.3922401,96.3057333 31.845871,95.7257333 31.1838472,95.6044 L31.1838472,95.6044 Z M39.4112877,95.9870667 C38.8742242,96.0417333 37.733629,96.3590667 37.846625,97.7644 C37.970256,99.2390667 38.9606329,99.4617333 39.7489464,99.4057333 C40.4920615,99.3444 41.265752,98.7937333 41.1633909,97.6444 C41.0743234,96.5337333 40.4920615,95.8884 39.4112877,95.9870667 L39.4112877,95.9870667 Z M49.8680734,95.5177333 C49.5064861,94.4710667 48.7872996,93.9937333 47.7597004,94.3510667 C47.2505536,94.5204 46.2309306,95.1297333 46.684244,96.4510667 C47.1535099,97.8404 48.1718036,97.8230667 48.9268829,97.5697333 C49.6314464,97.3270667 50.2442837,96.6217333 49.8680734,95.5177333 L49.8680734,95.5177333 Z M49.8680734,95.5177333 C49.5064861,94.4710667 48.7872996,93.9937333 47.7597004,94.3510667 C47.2505536,94.5204 46.2309306,95.1297333 46.684244,96.4510667 C47.1535099,97.8404 48.1718036,97.8230667 48.9268829,97.5697333 C49.6314464,97.3270667 50.2442837,96.6217333 49.8680734,95.5177333 L49.8680734,95.5177333 Z M39.4112877,95.9870667 C38.8742242,96.0417333 37.733629,96.3590667 37.846625,97.7644 C37.970256,99.2390667 38.9606329,99.4617333 39.7489464,99.4057333 C40.4920615,99.3444 41.265752,98.7937333 41.1633909,97.6444 C41.0743234,96.5337333 40.4920615,95.8884 39.4112877,95.9870667 L39.4112877,95.9870667 Z M31.1838472,95.6044 C30.2479742,95.4284 29.5899385,95.8324 29.4596607,96.5430667 C29.3679345,97.1150667 29.7880139,97.8404 30.6933115,97.9977333 C31.5068829,98.1470667 32.1409901,97.7324 32.2659504,97.0430667 C32.3922401,96.3057333 31.845871,95.7257333 31.1838472,95.6044 L31.1838472,95.6044 Z M30.3942044,99.4430667 C29.6404544,99.3044 28.6766647,99.6004 28.4905536,100.645733 C28.3336885,101.5764 28.9558313,102.3244 29.9143036,102.491067 C30.9884306,102.687067 31.6504544,101.9244 31.7661091,101.255067 C31.8910694,100.561733 31.5480933,99.6497333 30.3942044,99.4430667 L30.3942044,99.4430667 Z M30.3942044,99.4430667 C29.6404544,99.3044 28.6766647,99.6004 28.4905536,100.645733 C28.3336885,101.5764 28.9558313,102.3244 29.9143036,102.491067 C30.9884306,102.687067 31.6504544,101.9244 31.7661091,101.255067 C31.8910694,100.561733 31.5480933,99.6497333 30.3942044,99.4430667 L30.3942044,99.4430667 Z M31.1838472,95.6044 C30.2479742,95.4284 29.5899385,95.8324 29.4596607,96.5430667 C29.3679345,97.1150667 29.7880139,97.8404 30.6933115,97.9977333 C31.5068829,98.1470667 32.1409901,97.7324 32.2659504,97.0430667 C32.3922401,96.3057333 31.845871,95.7257333 31.1838472,95.6044 L31.1838472,95.6044 Z M31.1838472,95.6044 C30.2479742,95.4284 29.5899385,95.8324 29.4596607,96.5430667 C29.3679345,97.1150667 29.7880139,97.8404 30.6933115,97.9977333 C31.5068829,98.1470667 32.1409901,97.7324 32.2659504,97.0430667 C32.3922401,96.3057333 31.845871,95.7257333 31.1838472,95.6044 L31.1838472,95.6044 Z M30.3942044,99.4430667 C29.6404544,99.3044 28.6766647,99.6004 28.4905536,100.645733 C28.3336885,101.5764 28.9558313,102.3244 29.9143036,102.491067 C30.9884306,102.687067 31.6504544,101.9244 31.7661091,101.255067 C31.8910694,100.561733 31.5480933,99.6497333 30.3942044,99.4430667 L30.3942044,99.4430667 Z M25.688252,17.9790667 L22.731744,24.0937333 L27.0176171,22.3924 L25.688252,17.9790667 Z M25.688252,17.9790667 L22.731744,24.0937333 L27.0176171,22.3924 L25.688252,17.9790667 Z M22.731744,24.0937333 L27.0176171,22.3924 L25.688252,17.9790667 L22.731744,24.0937333 Z M53.9771409,30.9790667 L51.7212083,23.2884 L49.5822599,28.6017333 C49.2273194,28.4484 48.8670615,28.2950667 48.5094623,28.1470667 L46.9860099,20.1724 L44.925494,26.9604 C44.2847401,26.7884 43.6134107,26.6310667 42.9593631,26.4924 L46.4981329,14.8484 L48.1957321,15.9937333 L49.6633512,22.9844 L51.4154544,18.6044 L52.6517639,19.5924 L56.5587679,32.8230667 C55.725256,32.1644 54.8638274,31.5630667 53.9771409,30.9790667 L53.9771409,30.9790667 Z M37.205871,25.9444 C33.2869028,25.9444 30.0911091,22.7590667 30.0911091,18.8097333 C30.0911091,14.8630667 33.2869028,11.6830667 37.205871,11.6830667 C39.2717044,11.6830667 41.1381329,12.5644 42.4395813,13.9790667 L40.9108115,15.3897333 C39.9869028,14.3924 38.6668433,13.7710667 37.205871,13.7710667 C34.4354742,13.7710667 32.1689067,16.0244 32.1689067,18.8097333 C32.1689067,21.6030667 34.4354742,23.8604 37.205871,23.8604 C38.6668433,23.8604 39.9869028,23.2337333 40.9108115,22.2337333 L42.4422401,23.6390667 C41.1381329,25.0657333 39.2823393,25.9444 37.205871,25.9444 L37.205871,25.9444 Z M28.3855337,26.9604 L27.6051964,24.3444 L21.4249782,26.8084 L19.4442242,30.9057333 C18.3209107,31.6177333 17.2507718,32.3977333 16.2417837,33.2497333 L24.293748,16.4910667 L26.846129,14.8484 L30.3397004,26.5004 C29.6896409,26.6350667 29.0289464,26.7790667 28.3855337,26.9604 L28.3855337,26.9604 Z M57.4786885,23.8057333 C52.1293234,14.4337333 44.757994,8.68306667 36.674125,8.67373333 C36.6581726,8.67373333 36.6501964,8.68306667 36.6355734,8.68306667 L36.6355734,8.67373333 C28.550375,8.69506667 21.1790456,14.4457333 15.834998,23.8057333 C12.4650575,29.6737333 9.93527579,36.9937333 8.50487897,45.1577333 C13.9286885,35.1350667 24.4944821,28.3577333 36.6581726,28.3577333 C39.7090655,28.3577333 42.6456329,28.7950667 45.4439464,29.6030667 L45.4439464,29.5830667 L45.5489663,29.6244 C53.8468631,32.0270667 60.7569028,37.6950667 64.7955139,45.1777333 C63.3637877,36.9990667 60.8433115,29.6737333 57.4786885,23.8057333 L57.4786885,23.8057333 Z M25.688252,17.9790667 L22.731744,24.0937333 L27.0176171,22.3924 L25.688252,17.9790667 Z M25.688252,17.9790667 L22.731744,24.0937333 L27.0176171,22.3924 L25.688252,17.9790667 Z M56.6119425,65.0204 L56.6119425,82.8550667 C61.6874583,78.3164 65.1836885,72.0724 66.2591448,65.0204 L56.6119425,65.0204 Z M56.6119425,38.0457333 L56.6146012,54.8910667 L66.1155734,54.8870667 C64.8779345,48.2444 61.4468433,42.3670667 56.6119425,38.0457333 L56.6119425,38.0457333 Z M38.3025972,30.4604 L38.3025972,54.8870667 L45.4372996,54.8870667 L45.4439464,32.0270667 L45.4439464,31.7670667 C43.1680734,31.0737333 40.7818631,30.6004 38.3025972,30.4604 L38.3025972,30.4604 Z M38.3025972,65.0057333 L38.3025972,90.4444 C40.7738869,90.3110667 43.1547798,89.8350667 45.4372996,89.1324 L45.4372996,88.8390667 L45.4439464,65.0310667 L38.3025972,65.0057333 Z M30.3942044,99.4430667 C29.6404544,99.3044 28.6766647,99.6004 28.4905536,100.645733 C28.3336885,101.5764 28.9558313,102.3244 29.9143036,102.491067 C30.9884306,102.687067 31.6504544,101.9244 31.7661091,101.255067 C31.8910694,100.561733 31.5480933,99.6497333 30.3942044,99.4430667 L30.3942044,99.4430667 Z M31.1838472,95.6044 C30.2479742,95.4284 29.5899385,95.8324 29.4596607,96.5430667 C29.3679345,97.1150667 29.7880139,97.8404 30.6933115,97.9977333 C31.5068829,98.1470667 32.1409901,97.7324 32.2659504,97.0430667 C32.3922401,96.3057333 31.845871,95.7257333 31.1838472,95.6044 L31.1838472,95.6044 Z M31.1838472,95.6044 C30.2479742,95.4284 29.5899385,95.8324 29.4596607,96.5430667 C29.3679345,97.1150667 29.7880139,97.8404 30.6933115,97.9977333 C31.5068829,98.1470667 32.1409901,97.7324 32.2659504,97.0430667 C32.3922401,96.3057333 31.845871,95.7257333 31.1838472,95.6044 L31.1838472,95.6044 Z M30.3942044,99.4430667 C29.6404544,99.3044 28.6766647,99.6004 28.4905536,100.645733 C28.3336885,101.5764 28.9558313,102.3244 29.9143036,102.491067 C30.9884306,102.687067 31.6504544,101.9244 31.7661091,101.255067 C31.8910694,100.561733 31.5480933,99.6497333 30.3942044,99.4430667 L30.3942044,99.4430667 Z M49.8680734,95.5177333 C49.5064861,94.4710667 48.7872996,93.9937333 47.7597004,94.3510667 C47.2505536,94.5204 46.2309306,95.1297333 46.684244,96.4510667 C47.1535099,97.8404 48.1718036,97.8230667 48.9268829,97.5697333 C49.6314464,97.3270667 50.2442837,96.6217333 49.8680734,95.5177333 L49.8680734,95.5177333 Z M49.8680734,95.5177333 C49.5064861,94.4710667 48.7872996,93.9937333 47.7597004,94.3510667 C47.2505536,94.5204 46.2309306,95.1297333 46.684244,96.4510667 C47.1535099,97.8404 48.1718036,97.8230667 48.9268829,97.5697333 C49.6314464,97.3270667 50.2442837,96.6217333 49.8680734,95.5177333 L49.8680734,95.5177333 Z M39.4112877,95.9870667 C38.8742242,96.0417333 37.733629,96.3590667 37.846625,97.7644 C37.970256,99.2390667 38.9606329,99.4617333 39.7489464,99.4057333 C40.4920615,99.3444 41.265752,98.7937333 41.1633909,97.6444 C41.0743234,96.5337333 40.4920615,95.8884 39.4112877,95.9870667 L39.4112877,95.9870667 Z M39.4112877,95.9870667 C38.8742242,96.0417333 37.733629,96.3590667 37.846625,97.7644 C37.970256,99.2390667 38.9606329,99.4617333 39.7489464,99.4057333 C40.4920615,99.3444 41.265752,98.7937333 41.1633909,97.6444 C41.0743234,96.5337333 40.4920615,95.8884 39.4112877,95.9870667 L39.4112877,95.9870667 Z" id="Fill-4" fill="#FFFFFF"></path>
            <path d="M6.68112302,60.4586667 C6.68112302,55.2293333 8.00384127,50.316 10.3408651,46.0226667 L10.3408651,74.864 C8.00384127,70.58 6.68112302,65.6786667 6.68112302,60.4586667 L6.68112302,60.4586667 Z M21.5234841,34.5173333 L21.5234841,86.3746667 C19.5015198,85.1866667 17.6271151,83.772 15.933504,82.1573333 L15.933504,38.7413333 C17.6271151,37.1306667 19.5015198,35.7186667 21.5234841,34.5173333 L21.5234841,34.5173333 Z M32.7167381,30.6666667 L32.7167381,90.232 C30.7891587,89.976 28.914754,89.544 27.116123,88.9453333 L27.116123,31.9586667 C28.914754,31.3546667 30.7891587,30.9186667 32.7167381,30.6666667 L32.7167381,30.6666667 Z M38.3027302,63.4333333 L38.3027302,56.476 L47.0246944,56.476 L47.0246944,32.28 C49.9413214,33.352 52.6279683,34.8733333 55.0208254,36.744 L55.0261429,56.476 L66.3536627,56.476 C66.5198333,57.7866667 66.6408056,59.0973333 66.6408056,60.4586667 C66.6408056,61.4573333 66.5863016,62.4546667 66.4852698,63.4346667 L55.0261429,63.4346667 L55.0261429,84.148 C52.6292976,86.0186667 49.9413214,87.5453333 47.0246944,88.624 L47.0246944,63.4426667 L38.3027302,63.4333333 Z M36.6529881,115.036 C18.519119,114.941333 4.34675794,90.4066667 4.32282937,60.4573333 C4.34675794,30.504 18.519119,5.96666667 36.6529881,5.864 C54.7881865,5.96666667 68.9578889,30.504 68.9751706,60.4573333 C68.9578889,90.4066667 54.7881865,114.941333 36.6529881,115.036 L36.6529881,115.036 Z M61.6477103,19.3773333 C55.1843373,8.89066667 46.3294365,2.51466667 36.6529881,2.528 C26.973881,2.51466667 18.1203095,8.89066667 11.6556071,19.3773333 C5.20419841,29.86 1.17755159,44.3933333 1.18951587,60.4573333 C1.17755159,76.5133333 5.20419841,91.0453333 11.6556071,101.522667 C18.1203095,111.992 26.973881,118.373333 36.6529881,118.364 C46.3294365,118.373333 55.1843373,111.992 61.6477103,101.522667 C68.1070952,91.0453333 72.1244365,76.5133333 72.1177897,60.4573333 C72.1244365,44.3933333 68.1070952,29.86 61.6477103,19.3773333 L61.6477103,19.3773333 Z" id="Fill-6" fill="#D13239"></path>
        </g>
    </g>
</svg>