<?xml version="1.0" encoding="utf-8"?>
<!-- Generator: Adobe Illustrator 25.4.1, SVG Export Plug-In . SVG Version: 6.00 Build 0)  -->
<svg version="1.1" id="Layer_1" xmlns="http://www.w3.org/2000/svg" xmlns:xlink="http://www.w3.org/1999/xlink" x="0px" y="0px"
	 viewBox="0 0 158.2 281" style="enable-background:new 0 0 158.2 281;" xml:space="preserve">
<style type="text/css">
	.st0{fill:#FFFFFF;}
	.st1{fill:#024494;}
	.st2{fill:#FF1F11;}
	.st3{fill:#00BE1B;}
	.st4{fill:#E40D2C;}
	.st5{fill:url(#SVGID_1_);}
	.st6{fill:url(#SVGID_00000180347258684099182130000014525203770965696640_);}
	.st7{fill:url(#SVGID_00000114045344521264864150000007928363626661264822_);}
	.st8{fill:url(#SVGID_00000114064973075423956040000013329174875969720975_);}
	.st9{fill:url(#SVGID_00000054251606806279146950000017819575892322345396_);}
	.st10{fill:url(#SVGID_00000141448011951200777420000001882990054937795994_);}
	.st11{fill:#008FD7;}
	.st12{fill:#002D71;}
</style>
<path class="st0" d="M124.2,281H34c-18.8,0-34-15.2-34-34V34C0,15.3,15.3,0,34,0h90.2c18.8,0,34,15.2,34,34V247
	C158.2,265.7,143,281,124.2,281L124.2,281z"/>
<path class="st1" d="M0,220.8V247c0,18.8,15.2,34,34,34h90.2c18.8,0,34-15.2,34-34v-26.2H0z"/>
<path class="st2" d="M136.6,233.3h-2.1c-2.7,0-2.9,0.3-3.1,0.8l-4.2,10.1c-1.4,3.4-2.8,7-3.4,8.8c-0.9-3.1-2.1-6.1-3.4-9l-4.2-9.9
	c-0.3-0.6-1.3-0.8-3.6-0.8h-2.4c-2.3,0-2.8,0.2-2.8,0.7v30.4c0,0.6,0.5,0.7,2.9,0.7h1.3c2.4,0,3-0.1,3-0.7v-18h0.2
	c0.1,0.6,0.3,1.1,0.6,1.6l4.9,11.3c0.2,0.5,0.5,0.7,2.7,0.7h1.4c2.3,0,2.5-0.2,2.7-0.7l4.4-10.9c0.4-1,0.7-2,0.7-2h0.2v18.1
	c0,0.6,0.5,0.7,3,0.7h1.3c2.3,0,3-0.1,3-0.7V234C139.6,233.5,138.9,233.3,136.6,233.3"/>
<path class="st0" d="M101.4,234c0-0.5-0.7-0.7-3-0.7h-1.3c-2.5,0-2.9,0.2-2.9,0.7v30.4c0,0.6,0.4,0.7,2.9,0.7h1.4c2.3,0,3-0.1,3-0.7
	L101.4,234z"/>
<path class="st3" d="M88.5,233.3c0.6,0,0.8,0.1,0.8,2.3v2.1c0,2.1-0.2,2.4-0.8,2.4h-7.2v24.3c0,0.6-0.7,0.7-3.1,0.7h-1.3
	c-2.4,0-2.9-0.1-2.9-0.7v-24.3h-7.2c-0.6,0-0.8-0.2-0.8-2.4v-2.1c0-2.3,0.1-2.3,0.8-2.3L88.5,233.3z"/>
<path class="st4" d="M34.7,258.3H21.4c-1,0-1.8,0.8-1.8,1.8v3.1c0,1,0.8,1.8,1.8,1.8h13.4L34.7,258.3z M57,258.8
	c-0.3-0.3-0.8-0.5-1.3-0.5H42.4v6.8h13.4c0.5,0,1-0.2,1.3-0.5c0.3-0.3,0.5-0.8,0.5-1.3v-3.1C57.6,259.6,57.4,259.2,57,258.8
	 M57,246.3c-0.3-0.3-0.8-0.5-1.3-0.5H42.4v6.8h13.4c0.5,0,1-0.2,1.3-0.5c0.3-0.3,0.5-0.8,0.5-1.3v-3.1
	C57.6,247.1,57.4,246.7,57,246.3 M34.7,245.8H21.4c-1,0-1.8,0.8-1.8,1.8v3.1c0,1,0.8,1.8,1.8,1.8h13.4L34.7,245.8z M55.7,240.1H21.3
	c-1,0-1.8-0.8-1.8-1.8v-3.1c0-1,0.8-1.8,1.8-1.8h34.4c0.5,0,1,0.2,1.3,0.5c0.3,0.3,0.5,0.8,0.5,1.3v3.1
	C57.6,239.3,56.7,240.1,55.7,240.1"/>
<linearGradient id="SVGID_1_" gradientUnits="userSpaceOnUse" x1="11032.9209" y1="6565.8105" x2="11695.4512" y2="6948.3208" gradientTransform="matrix(9.000000e-02 0 0 9.000000e-02 -974.78 -460.02)">
	<stop  offset="0" style="stop-color:#147AD1"/>
	<stop  offset="1" style="stop-color:#002D71"/>
</linearGradient>
<polygon class="st5" points="19.6,140.8 79.5,178.1 55.9,140.8 "/>
<linearGradient id="SVGID_00000183939082140520602650000017113546110024677311_" gradientUnits="userSpaceOnUse" x1="12277.8779" y1="6601.625" x2="11655.4678" y2="7037.4351" gradientTransform="matrix(9.000000e-02 0 0 9.000000e-02 -974.78 -460.02)">
	<stop  offset="0" style="stop-color:#147AD1"/>
	<stop  offset="1" style="stop-color:#002D71"/>
</linearGradient>
<polygon style="fill:url(#SVGID_00000183939082140520602650000017113546110024677311_);" points="102.5,140.8 79.5,178.1 
	138.8,140.8 "/>
<linearGradient id="SVGID_00000165944013824407098550000008820129876099656323_" gradientUnits="userSpaceOnUse" x1="11553.2051" y1="6900.4712" x2="11937.4248" y2="6678.6411" gradientTransform="matrix(9.000000e-02 0 0 9.000000e-02 -974.78 -460.02)">
	<stop  offset="0" style="stop-color:#147AD1"/>
	<stop  offset="1" style="stop-color:#002D71"/>
</linearGradient>
<polygon style="fill:url(#SVGID_00000165944013824407098550000008820129876099656323_);" points="55.9,140.8 79.5,178.1 79.5,140.8 
	"/>
<linearGradient id="SVGID_00000142895798613530376690000011257738086030263992_" gradientUnits="userSpaceOnUse" x1="11770.5293" y1="6450.1738" x2="11439.6484" y2="6218.4937" gradientTransform="matrix(9.000000e-02 0 0 9.000000e-02 -974.78 -460.02)">
	<stop  offset="0" style="stop-color:#147AD1"/>
	<stop  offset="1" style="stop-color:#002D71"/>
</linearGradient>
<polygon style="fill:url(#SVGID_00000142895798613530376690000011257738086030263992_);" points="79.2,76.3 55.9,140.8 79.5,140.8 
	"/>
<linearGradient id="SVGID_00000111176815440627782670000018086045478596162712_" gradientUnits="userSpaceOnUse" x1="11587.2285" y1="6192.562" x2="12063.8779" y2="6669.2124" gradientTransform="matrix(9.000000e-02 0 0 9.000000e-02 -974.78 -460.02)">
	<stop  offset="0" style="stop-color:#147AD1"/>
	<stop  offset="1" style="stop-color:#002D71"/>
</linearGradient>
<polygon style="fill:url(#SVGID_00000111176815440627782670000018086045478596162712_);" points="79.2,76.3 79.5,140.8 102.5,140.8 
	"/>
<linearGradient id="SVGID_00000095327171357606485940000003581904125896981392_" gradientUnits="userSpaceOnUse" x1="11960.5078" y1="6710.647" x2="11602.2881" y2="6961.4771" gradientTransform="matrix(9.000000e-02 0 0 9.000000e-02 -974.78 -460.02)">
	<stop  offset="0" style="stop-color:#147AD1"/>
	<stop  offset="1" style="stop-color:#002D71"/>
</linearGradient>
<polygon style="fill:url(#SVGID_00000095327171357606485940000003581904125896981392_);" points="79.5,140.8 79.5,178.1 
	102.5,140.8 "/>
<path class="st11" d="M138.8,140.8L138.8,140.8L91.4,30.5H66.8L19.6,140.8h36.3l23.3-64.5l10.9,30H79.2L73,125h23.8l5.7,15.8
	L138.8,140.8z"/>
<path class="st12" d="M27.1,210.4c-1.8,0-3.5-0.3-5.2-0.9c-1.5-0.5-2.8-1.3-3.9-2.3c-0.2-0.1-0.2-0.4,0-0.6c0,0,0,0,0,0l2.6-3
	c0.1-0.2,0.3-0.2,0.5,0c1.7,1.5,3.9,2.4,6.2,2.4c1,0.1,2-0.2,2.8-0.8c0.7-0.5,1-1.2,1-2c0-0.7-0.3-1.3-0.8-1.7
	c-0.9-0.5-1.8-0.8-2.8-0.9l-1.2-0.2c-5-0.7-7.5-3-7.5-7.1c-0.1-2,0.8-3.9,2.3-5.3c1.7-1.4,3.9-2.1,6.1-2c2.9-0.1,5.7,0.8,8,2.5
	c0.2,0.1,0.2,0.3,0.2,0.4c0,0,0,0.1-0.1,0.1l-2.1,3.1c-0.1,0.2-0.3,0.2-0.4,0.1c0,0,0,0,0,0c-1.6-1.1-3.5-1.7-5.5-1.8
	c-0.8-0.1-1.7,0.2-2.4,0.7c-0.5,0.5-0.8,1.1-0.8,1.9c0,0.7,0.3,1.3,0.9,1.7c0.9,0.5,1.8,0.9,2.8,0.9l1.2,0.2c5,0.7,7.4,3.1,7.4,7.2
	c0.1,2.1-0.8,4.1-2.4,5.4C32.3,209.8,30,210.5,27.1,210.4L27.1,210.4z"/>
<path class="st12" d="M39.9,209.7v-23c0-0.2,0.1-0.3,0.3-0.4c0,0,0.1,0,0.1,0h15.2c0.2,0,0.3,0.1,0.4,0.3c0,0,0,0.1,0,0.1v3.7
	c0,0.2-0.1,0.3-0.3,0.4c0,0-0.1,0-0.1,0H45.2c-0.1,0-0.2,0-0.2,0.1c0,0,0,0,0,0.1v4.7c0,0.1,0,0.2,0.1,0.2c0,0,0,0,0.1,0h8.5
	c0.2,0,0.3,0.1,0.4,0.3c0,0,0,0.1,0,0.1v3.7c0,0.2-0.1,0.3-0.3,0.4c0,0-0.1,0-0.1,0h-8.5c-0.1,0-0.2,0-0.2,0.1c0,0,0,0,0,0.1v4.9
	c0,0.1,0,0.2,0.1,0.2c0,0,0,0,0.1,0h10.2c0.2,0,0.3,0.1,0.4,0.3c0,0,0,0.1,0,0.1v3.7c0,0.2-0.1,0.3-0.3,0.4c0,0-0.1,0-0.1,0H40.2
	C40.1,210.1,39.9,210,39.9,209.7C39.9,209.8,39.9,209.7,39.9,209.7L39.9,209.7z"/>
<path class="st12" d="M78.2,210.1h-4.9c-0.2,0-0.4-0.1-0.5-0.4l-4.1-8.7h-3.2c-0.1,0-0.2,0-0.2,0.1c0,0,0,0,0,0.1v8.5
	c0,0.2-0.1,0.3-0.3,0.4c0,0-0.1,0-0.1,0h-4.4c-0.2,0-0.3-0.1-0.4-0.3c0,0,0-0.1,0-0.1v-23c0-0.2,0.1-0.3,0.3-0.4c0,0,0.1,0,0.1,0
	h9.4c2.1-0.1,4.2,0.6,5.8,2c1.5,1.4,2.3,3.3,2.2,5.3c0,1.4-0.4,2.8-1.1,4c-0.8,1.2-1.8,2.1-3.1,2.6l4.7,9.3c0,0.1,0,0.2,0,0.3
	C78.4,210,78.3,210.1,78.2,210.1z M69.7,196.7c0.9,0,1.7-0.2,2.3-0.8c1.2-1.2,1.2-3.1,0-4.3c-0.6-0.6-1.5-0.8-2.3-0.8h-4.2
	c-0.1,0-0.2,0-0.2,0.1c0,0,0,0,0,0.1v5.5c0,0.1,0,0.2,0.1,0.2c0,0,0,0,0.1,0L69.7,196.7L69.7,196.7z"/>
<path class="st12" d="M82.1,209.7v-23c0-0.2,0.1-0.3,0.3-0.4c0,0,0.1,0,0.1,0h4.4c0.2,0,0.3,0.1,0.4,0.3c0,0,0,0.1,0,0.1v23
	c0,0.2-0.1,0.3-0.3,0.4c0,0-0.1,0-0.1,0h-4.4C82.3,210.1,82.1,210,82.1,209.7C82.1,209.8,82.1,209.7,82.1,209.7z"/>
<path class="st12" d="M92.3,209.7v-23c0-0.2,0.1-0.3,0.3-0.4c0,0,0.1,0,0.1,0h15.2c0.2,0,0.3,0.1,0.4,0.3c0,0,0,0.1,0,0.1v3.7
	c0,0.2-0.1,0.3-0.3,0.4c0,0-0.1,0-0.1,0H97.6c-0.1,0-0.2,0-0.2,0.1c0,0,0,0,0,0.1v4.7c0,0.1,0,0.2,0.1,0.2c0,0,0,0,0.1,0h8.5
	c0.2,0,0.3,0.1,0.4,0.3c0,0,0,0.1,0,0.1v3.7c0,0.2-0.1,0.3-0.3,0.4c0,0-0.1,0-0.1,0h-8.5c-0.1,0-0.2,0-0.2,0.1c0,0,0,0,0,0.1v4.9
	c0,0.1,0,0.2,0.1,0.2c0,0,0,0,0.1,0h10.2c0.2,0,0.3,0.1,0.4,0.3c0,0,0,0.1,0,0.1v3.7c0,0.2-0.1,0.3-0.3,0.4c0,0-0.1,0-0.1,0H92.6
	C92.5,210.1,92.3,210,92.3,209.7C92.3,209.8,92.3,209.7,92.3,209.7L92.3,209.7z"/>
<path class="st12" d="M119.1,209.7l8.1-23c0-0.2,0.2-0.4,0.5-0.4h4.4c0.2,0,0.4,0.1,0.5,0.4l8,23c0.1,0.2,0,0.4-0.2,0.4h-4.5
	c-0.2,0-0.4-0.1-0.5-0.4l-1.4-4.1h-8.3l-1.3,4.1c0,0.2-0.2,0.4-0.5,0.4h-4.6C119.1,210.1,119,210,119.1,209.7z M127.1,201.2h5.5
	l-2.7-8.3h-0.1L127.1,201.2z"/>
</svg>
